<?xml version="1.0" standalone="no"?>
<!DOCTYPE svg PUBLIC "-//W3C//DTD SVG 20010904//EN"
 "http://www.w3.org/TR/2001/REC-SVG-20010904/DTD/svg10.dtd">
<svg version="1.0" xmlns="http://www.w3.org/2000/svg"
 width="299.000000pt" height="208.000000pt" viewBox="0 0 299.000000 208.000000"
 preserveAspectRatio="xMidYMid meet">
<metadata>
Created by potrace 1.10, written by Peter Selinger 2001-2011
</metadata>
<g transform="translate(0.000000,208.000000) scale(0.100000,-0.100000)"
fill="#000000" stroke="none">
<path d="M470 1445 c-209 -350 -380 -638 -380 -640 0 -8 353 -247 385 -261 19
-8 61 -14 93 -15 48 -1 70 4 113 27 62 34 179 147 304 292 48 57 106 121 128
143 42 40 113 79 146 79 37 0 73 -44 132 -161 l59 -119 -162 -322 c-90 -178
-164 -326 -166 -330 -2 -5 20 -8 50 -8 l53 0 139 277 138 278 139 -278 139
-277 53 0 53 0 -165 330 -166 329 62 125 c38 77 72 132 88 142 60 39 149 -14
284 -171 139 -161 289 -307 342 -333 61 -29 141 -31 202 -4 25 11 123 73 216
138 162 111 170 118 158 139 -7 12 -178 300 -382 639 -358 596 -371 616 -400
616 -30 0 -33 -6 -326 -592 l-296 -593 -297 593 c-292 584 -296 592 -326 592
-28 0 -43 -22 -410 -635z m1752 450 c39 -66 89 -148 110 -183 21 -34 47 -77
57 -95 10 -17 120 -202 245 -411 125 -208 225 -384 222 -391 -3 -8 -31 -31
-63 -52 -86 -58 -83 -57 -70 -23 9 24 8 36 -7 67 -15 32 -78 142 -116 203 -5
8 -52 83 -103 165 -216 347 -393 614 -419 629 -40 24 -62 -5 -173 -226 -213
-421 -207 -408 -181 -437 18 -20 15 -41 -6 -41 -6 0 -26 -11 -44 -25 -42 -32
-144 -235 -144 -286 0 -24 40 -114 135 -304 74 -149 135 -277 135 -285 -1 -8
-58 97 -128 234 -71 140 -136 256 -148 263 -38 24 -65 -13 -190 -262 -106
-213 -134 -262 -134 -239 0 5 63 135 140 289 77 155 140 292 140 304 0 34 -97
232 -132 268 -17 17 -43 37 -59 43 l-29 12 19 24 c15 19 17 32 12 52 -14 46
-281 575 -304 600 -11 12 -28 22 -37 22 -22 0 -66 -50 -121 -135 -25 -38 -70
-108 -101 -155 -172 -266 -329 -518 -397 -637 -52 -91 -61 -121 -47 -155 5
-12 -18 -1 -64 29 -60 39 -71 50 -67 70 5 27 716 1213 727 1213 4 0 134 -254
289 -564 188 -379 289 -571 307 -585 24 -19 27 -19 50 -4 15 9 50 66 87 142
35 69 126 252 204 406 77 154 178 356 223 450 76 157 83 168 97 150 8 -11 46
-74 85 -140z m-1112 -418 c85 -172 156 -315 158 -318 1 -4 -18 -9 -43 -11 -68
-8 -149 -63 -233 -159 -149 -171 -298 -323 -341 -351 -74 -47 -118 -37 -256
56 -49 33 -91 61 -93 62 -7 4 218 370 411 669 110 171 207 322 216 337 9 16
18 28 21 27 3 0 75 -141 160 -312z m1118 51 c268 -415 472 -747 472 -767 0
-11 -175 -126 -213 -140 -42 -16 -73 -13 -118 10 -49 25 -163 136 -283 277
-49 57 -107 122 -130 143 -48 47 -147 99 -188 99 -15 0 -28 2 -28 5 0 6 314
635 317 635 1 0 78 -118 171 -262z"/>
</g>
</svg>
